<?xml version="1.0" encoding="utf-8"?>
<!-- Generator: Adobe Illustrator 23.0.2, SVG Export Plug-In . SVG Version: 6.00 Build 0)  -->
<svg version="1.1" id="Layer_1" xmlns="http://www.w3.org/2000/svg" xmlns:xlink="http://www.w3.org/1999/xlink" x="0px" y="0px"
	 viewBox="0 0 612 792" style="enable-background:new 0 0 612 792;" xml:space="preserve">
<style type="text/css">
	.st0{fill:#FEFEFE;}
	.st1{fill:#6BDCFA;}
	.st2{fill:#7BDFFB;}
	.st3{fill:#F7FCFE;}
	.st4{fill:#F3FBFE;}
	.st5{fill:#F9FDFE;}
	.st6{fill:#F6FCFE;}
	.st7{fill:#F5FCFE;}
	.st8{fill:#F8FDFE;}
	.st9{fill:#D0F3FD;}
	.st10{fill:#C4F0FC;}
	.st11{fill:#CFF3FD;}
	.st12{fill:#BEEFFC;}
	.st13{fill:#C7F2FC;}
	.st14{fill:#D4F4FD;}
	.st15{fill:#68DBFA;}
	.st16{fill:#B0ECFC;}
</style>
<g>
	<path class="st0" d="M336,397c0,9.5-0.09,19,0.07,28.5c0.03,2.15-0.42,2.58-2.57,2.56c-17.67-0.11-35.33-0.11-53,0
		c-2.15,0.01-2.58-0.42-2.56-2.56c0.11-19.33,0.11-38.67,0-58c-0.01-2.15,0.41-2.58,2.56-2.56c17.67,0.11,35.33,0.11,53,0
		c2.15-0.01,2.6,0.41,2.57,2.56C335.92,377.33,336,387.17,336,397z"/>
	<path class="st1" d="M331.97,413.71c-3.85,1.3-7.79,1.9-11.77,0.82c-2.17-0.59-2.91,0.31-3.58,2.18c-0.73,2.02-1.75,3.98-2.91,5.79
		c-3.89,6.06-10.26,6.32-13.23-0.15c-2.75-5.99-5.66-8.28-12.66-7.61c-8.21,0.78-10.87-4.86-6.23-11.93
		c2.8-4.27,4.56-7.77,0.26-12.19c-2.28-2.34-3.9-5.66-1.99-9.11c1.99-3.59,5.71-3.56,9.22-3.59c1.49-0.02,3.07-0.06,4.44,0.42
		c2.36,0.82,3.21-0.09,3.97-2.21c0.78-2.17,1.89-4.29,3.21-6.18c3.76-5.36,9.65-5.82,12.34-0.04c3.17,6.83,7.37,8.53,14.46,8.25
		c6.95-0.27,9.18,4.69,5.9,10.92c-0.54,1.03-1.02,2.19-1.85,2.94c-4,3.62-3.13,6.91,0.44,10.15c0.73,1.55,3.4,3.32-0.5,4.33
		c-1.03-0.27-1.58-1.12-2.22-1.87c-4.12-4.8-5.66-4.54-8.37,1.44c-0.27,0.6-0.54,1.2-0.86,1.78c-0.89,1.82-0.8,3.49,1.53,3.69
		c2.9,0.25,6,1.08,8.56-1.25c0.59-0.46,1.24-0.76,2.01-0.73C334.78,411.05,332.82,412.35,331.97,413.71z"/>
	<path class="st2" d="M331.97,413.71c-0.18-1.26,1.88-2.61-0.15-3.79c-1-1.19-1.63-2.44-0.63-3.94c3.22-0.66,0.36-2.58,0.8-3.82
		C336.02,406.54,336.01,409.98,331.97,413.71z"/>
	<path class="st3" d="M317.03,396.29c0.01,5.74-4.86,10.87-10.2,10.73c-5.03-0.13-9.74-5.02-9.75-10.14
		c-0.02-6.01,4.43-10.94,9.91-10.97C312.32,385.88,317.01,390.73,317.03,396.29z"/>
	<path class="st4" d="M325.44,380.16c2.34,0.16,5.63,0.39,6.34,4.39c0.4,2.23-4.22,8.99-5.85,9.09c-3.03,0.18-7.56-6.38-7.3-10.59
		C318.75,381.08,320.63,380.16,325.44,380.16z"/>
	<path class="st5" d="M289.28,380.1c1.97,0.95,5.67-0.74,6,3.23c0.35,4.21-4.11,10.35-7.05,10.31c-1.76-0.03-6.34-6.64-5.96-9.08
		C282.87,380.74,286.03,380.46,289.28,380.1z"/>
	<path class="st6" d="M307.01,410.85c2.51,1.27,6.44,0.56,6.92,4.71c0.32,2.77-4.34,8.24-6.69,8.38c-2.22,0.13-7.51-5.79-7.11-8.53
		C300.66,411.71,304.23,411.95,307.01,410.85z"/>
	<path class="st7" d="M313.99,378.36c-0.98,2.7-4.68,3.32-7.12,3.19c-2.23-0.12-6.33-0.08-6.76-4.01c-0.3-2.76,4.94-8.69,7.12-8.57
		C309.67,369.1,313.97,374.43,313.99,378.36z"/>
	<path class="st8" d="M289.74,412.23c-3.14-0.4-7.35,0.43-7.29-4.09c0.05-3.59,2.21-7.19,5.68-8.64c2.57-1.07,7.71,5.93,7.36,9.96
		C295.13,413.43,291.69,411.5,289.74,412.23z"/>
	<path class="st4" d="M331.18,405.97c0.21,1.31,0.42,2.63,0.63,3.94c-0.28,0.35-0.55,0.69-0.83,1.04c-3.01,2.52-6.63,1.69-9.92,1.35
		c-3.16-0.32-2.88-2.93-2.05-5.3c1.04-3.43,2.75-7.04,6.36-7.36C328.81,399.34,329.53,403.53,331.18,405.97z"/>
	<path class="st2" d="M319.01,407c-0.73,4.61,2.02,5.18,5.66,5.14c2.22-0.03,4.24-0.63,6.31-1.18c-3.36,3.91-7.73,2.21-11.46,1.41
		C317.3,411.89,317.34,409.02,319.01,407z"/>
	<path class="st9" d="M293.66,393.41c0.63,2.2,0.63,3.95,0.1,5.74C289.83,396.72,289.83,396.72,293.66,393.41z"/>
	<path class="st10" d="M320.28,399.48c-0.47-2.18-0.51-3.92-0.06-5.68C324.51,396.23,324.51,396.23,320.28,399.48z"/>
	<path class="st11" d="M300.26,410.43c-1.86,0.09-2.29-1.11-2.47-2.21c-0.27-1.65,1.17-1.21,2-1.22c1.19-0.02,2.51,0.35,2.69,1.68
		C302.72,410.52,300.63,409.57,300.26,410.43z"/>
	<path class="st12" d="M315.96,384.33c-0.08,1.36-0.89,1.87-1.98,1.52c-1.01-0.32-2.49-0.54-2.4-1.97c0.06-1.08,1.34-1.42,2.23-1.55
		C315.19,382.13,315.78,383.14,315.96,384.33z"/>
	<path class="st13" d="M313.81,407.02c1.07-0.08,2.03,0.12,2.09,1.4c0.05,1.04-0.42,2.08-1.58,1.96c-1.01-0.1-2.58-0.03-2.78-1.38
		C311.33,407.59,312.69,407.28,313.81,407.02z"/>
	<path class="st14" d="M303.11,383.93c-1.86,1.35-3.01,2.9-4.75,1.34c-0.3-0.27-0.25-1.39,0.05-1.81
		C299.89,381.42,301.18,383.08,303.11,383.93z"/>
	<path class="st15" d="M311.14,400.13c-2.97,3.15-6.09,2.32-8.52-0.36c-2.54-2.8-1.89-5.72,1.3-7.91c2.75-1.18,5.45-1.48,7.48,1.21
		C313.16,395.4,313.14,397.85,311.14,400.13z"/>
	<path class="st16" d="M311.14,400.13c2.01-6.62,0.74-8.07-7.22-8.26c2.62-3.03,5.32-2.38,7.53,0.28
		C313.57,394.7,314.65,397.6,311.14,400.13z"/>
</g>
</svg>
